<svg id="Layer_1" data-name="Layer 1" xmlns="http://www.w3.org/2000/svg" viewBox="0 0 501.55 288.32"><defs><style>.cls-1{fill-rule:evenodd;}</style></defs><title>back</title><path class="cls-1" d="M795.38,505c0-.25-.36.77-1.49.91-2.07.26-5.14,1.19-9.49,1.71-10.39,1.25-26.59,1.63-43.3,2.72-28.8,1.85-59.29,3.49-65.15,3.89-34.53,2.31-69.12,3.87-103.73,5.1-13.82.49-27.64,1.08-41.47,1.34-20.76.39-41.49.23-62.24.53a2.11,2.11,0,0,1-.21-4.22c20.71-1.73,41.37-3.6,62.12-4.81,48.28-2.83,96.66-4,144.87-7.53,8.16-.5,64-4.37,96.89-4.54,5.71,0,10.76-.27,14.67.37,7.23,1.19,10.6,3.89,10.29,4.69a.87.87,0,0,1-1,.8A.89.89,0,0,1,795.38,505Z" transform="translate(-300.45 -345.72)"/><path class="cls-1" d="M442.52,364.36a23,23,0,0,0-2.55,1.7c-16.16,15.1-86.92,68.2-116.19,90.78-3.24,2.5-6,4.62-8,6.26l1.06,1c9.79,9.28,32.12,27.2,56.84,46.46,33.66,26.23,71.7,54.89,88.82,67.74l-1.12-33.26,0-22.15c.1-1.35,3-3.71,1.5-4.94-1.86-1.54,1.11-2.82,3.07-2.25a.9.9,0,0,1-.26-.63.89.89,0,0,1,.89-.89c1.95-1.2,2.32.32,3.08,1.9s-.09,4.84.59,6.61l1.93,21.67,1.73,45.11a5.52,5.52,0,0,1-8.82,4.61s-84.24-62.17-131-99.74c-13.64-10.94-24.14-19.86-28.66-24.64-3-3.2-3.92-5.92-4-7.08,0-.39,0-3.29,3.27-6.06,1.91-1.65,6.05-4.91,11.73-9.31,29-22.46,99.13-75.25,115.12-90.27,1.45-1.35,6-6.75,9.57-9.17a10.82,10.82,0,0,1,7-2.1,6.56,6.56,0,0,1,5.52,5.79c.14.84.36,2.58.67,5.11.91,7.37,4,21.54,4.64,39.71.12,3.29-.26,6.58-.41,10.1a4.69,4.69,0,1,1-9.32,1.06c-.93-3.4-2-6.51-2.67-9.74A281.4,281.4,0,0,1,442.52,364.36Z" transform="translate(-300.45 -345.72)"/><path class="cls-1" d="M452.93,407.64a.47.47,0,0,0,.53.37s.59-.59.26-.73c-.5-.21.21-1-.38-1-.32,0-.58-2-.17-1.32.62,1.05,2.4-1.55,4.06-2.26a24.47,24.47,0,0,1,5.24-1.43L482,397.68l58.75-9.32c48.68-6.85,127.08-20.47,189.17-27.91,10-1.2,19.61-2.26,28.63-2.7,6.86-.33,13.23-.07,19.3-.06a2.67,2.67,0,0,1,.68,5.3c-5.86,1.52-11.92,3.42-18.61,4.92-8.78,2-18.26,3.59-28.19,5.25C670,383.45,591.29,394.59,542.62,401.58l-59.09,7.29-19.73,1.74c-2.43-.05-7.53,1.41-9.94.57-5.43-1.88-7.29-3.69-2.35-4.61a.88.88,0,0,1,1.25-.16A.87.87,0,0,1,452.93,407.64Z" transform="translate(-300.45 -345.72)"/><path class="cls-1" d="M795.38,504c-1.65-1.35-2.26.3-4.28-2.71-1-1.49-1-3.95-1.5-6.67-3.38-18.79-9.57-57.73-14-90.12-1.54-11.32-2.85-21.85-3.25-30.51a40.21,40.21,0,0,1,0-6.68,38,38,0,0,1,1.83-6.82,2.53,2.53,0,0,1,2.42-2.66,2.56,2.56,0,0,1,2.67,2.42c.82,2.29,2.13,4.42,3,7.47,1.43,5,2.25,11.08,3.38,17.78,5.46,32.26,13.68,79,15.58,103.31.4,5.09,1.4,9.52.07,12.07-1.79,3.45-2.18,2-4.18,3.23a.89.89,0,0,1-.95.83A.88.88,0,0,1,795.38,504Z" transform="translate(-300.45 -345.72)"/><path class="cls-1" d="M772.46,547.4l14.61-32.2,5.16-10.77c.62-1.16,2.82-4.16,2.61-5.07-.24-.29-.46-.46-.1-.2a.28.28,0,0,1,.1.2c.22.23.45.54.34.67-1.41,1.57,1.42.13,1.53,1.48.1,1.1.65-1,1.58,0,.36.39.36.41.84-.94a1.05,1.05,0,0,1,.21-.4c.4-.6.64.46-1.26-.23a.89.89,0,1,1-1.49-1c-3.17-3.55.26-1.11.37-2.23.17-1.81.77,1,2,.2.71-.46-.14.87.91.84.69,0-.09.18.76,1.86.56,1.07-1,5.75-1.46,7.59l-5,11.29-14.07,33.56a5.85,5.85,0,0,1-4.89,3c-3.14.3-11.17-.27-11.83-.27l-42.9,2.22L574.63,563c-24.89,1.37-49.65,4-74.49,5.3-9.65.52-19.38,2-29,.86a24.57,24.57,0,0,1-3.23-.8,2.94,2.94,0,1,1,0-5.88l106.21-8.21L720,548.1l43.26-2.23C763.72,545.87,769.36,547.54,772.46,547.4Zm.12,0c.7-1.12,1.75-2.5,1.85-1.22C774.5,547,773.74,547.32,772.58,547.38Z" transform="translate(-300.45 -345.72)"/><path class="cls-1" d="M782.28,535.21l-4.29,5c-2,2.28-5,7-8.4,10.08a12.4,12.4,0,0,1-5.15,3,.75.75,0,0,1-.93-.5.74.74,0,0,1,.5-.91c1.75-.62,3.5-2.47,5.31-4.48,2.71-3,5.44-6.59,7.23-8.51l4.05-4.34a.89.89,0,0,1,1.68.6Z" transform="translate(-300.45 -345.72)"/><path class="cls-1" d="M758,549.27a2.13,2.13,0,0,1,.47-1.16,65.33,65.33,0,0,1,4.94-5.18l12.78-13.15,5-4.49a4.56,4.56,0,0,1,1-.3l.23-.39.22-.3v0l0,0h0l.11-.17a1.66,1.66,0,0,1,1.84-.27c.72.23.79.83.91,1.29s-1.33,2.11-1.94,2.9l-4.23,4.85-13.34,12.91c-.33.26-3.8,3.39-6.09,4.34s-3.29.1-2.34-.6A.36.36,0,0,1,758,549.27Zm24.73-25s.11.07.2.22,0,.29-.22.38a1.15,1.15,0,0,1,0-.53Z" transform="translate(-300.45 -345.72)"/><path class="cls-1" d="M785.73,515.61c-1.07,1.24-3,4-3.9,5.15l-7.17,7.77c-5.91,5.81-11.19,12.94-17.72,18.39a53.46,53.46,0,0,1-9.44,6,.58.58,0,1,1-.67-1l25-26.35,7.34-7.33c1.4-1.27,4.69-4.51,5.72-5.07,1.86-1,3.57-1.11,1.73,1.77A1,1,0,0,1,785.73,515.61Z" transform="translate(-300.45 -345.72)"/><path class="cls-1" d="M788.85,506.61a2.32,2.32,0,0,1-.57,1c-2.68,2.88-9.48,9.64-11.3,11.68-5.93,5.67-11,12.35-17,18a86.23,86.23,0,0,1-13.58,10.08.75.75,0,0,1-1.06-.12.74.74,0,0,1,.12-1c5.94-5.72,10.53-12.61,16-18.91a131.67,131.67,0,0,1,12-11.76c1.86-1.53,7.8-6.42,11.67-8.9,1.41-.91,2.77-2.11,3-1.64l.08.13c.18-.19.55.1.69.62a1.39,1.39,0,0,0,.91,0,.8.8,0,0,1-.28.57A.85.85,0,0,1,788.85,506.61Z" transform="translate(-300.45 -345.72)"/><path class="cls-1" d="M782,501.61l0,.11a32.25,32.25,0,0,1-5.07,8.19c-3,3.66-6.81,7-9.35,10.08-5.44,6.21-11.27,13.68-18,19.89a82.82,82.82,0,0,1-14.62,10.63.63.63,0,0,1-.86-.14.65.65,0,0,1,.14-.88l29.75-32.64,16.14-16.15.05-.09c-.75.79-5.62,2-5.68,3.76C775.84,503.37,784.36,498.06,782,501.61Z" transform="translate(-300.45 -345.72)"/><path class="cls-1" d="M770.66,504.63c-.85.94-1.68,2-2.19,2.56l-9.28,10.87-23.26,25c-1.35,1.27-3.72,3.83-6.21,5.84a13.15,13.15,0,0,1-5.13,2.9.36.36,0,0,1-.44-.23.37.37,0,0,1,.23-.45l8.92-10.45L755.72,515l10.46-10c1.68-1.46,6.49-4.79,7.05-4.36.26.21.69,1.61-1.06,4.07a.88.88,0,0,1-1.22.29A.68.68,0,0,1,770.66,504.63Z" transform="translate(-300.45 -345.72)"/><path class="cls-1" d="M464.39,519.83c-.71-2.75.95-4.14,3.83-4.69,3.63-.71,9.48,0,12.71-.34a1.14,1.14,0,1,1,.23,2.26c-3.21.28-9-.6-12.59,0-1.59.27-2.75.79-2.39,2.32a1,1,0,0,1-.68,1.12A.91.91,0,0,1,464.39,519.83Z" transform="translate(-300.45 -345.72)"/><path class="cls-1" d="M464.61,517.25a40.11,40.11,0,0,1,17.13-3.79c6.14-.05,12.28,1.19,17.21,2.24a.67.67,0,0,1,.55.77.65.65,0,0,1-.76.55,116.08,116.08,0,0,0-20.32-.42c-4.73.3-9.3.73-13.06,2.27a.89.89,0,0,1-.75-1.62Z" transform="translate(-300.45 -345.72)"/><path class="cls-1" d="M462.5,524.13l.25-4.43c1-3.31,2.18-4.5,3.71-5,1.77-.54,4.29.14,8.47-.23L520,512.94a.86.86,0,0,1,.27,1.7,96.52,96.52,0,0,1-13.59,1.58c-10.49.49-21.14-.33-31.59.43-4,.28-6.38-.5-8.09,0-1.09.3-1.72,1.29-2.47,3.62l-.53,3a.9.9,0,0,1-.28,1.23A.92.92,0,0,1,462.5,524.13Z" transform="translate(-300.45 -345.72)"/><path class="cls-1" d="M465.43,528.63c-2.39,1.66-3.45,1.67-3.39,1-1,0-.55-.79,2.7-2.69l.13-.06,2.14-1.25,4.5-3a86.46,86.46,0,0,1,8.63-5.66,102.54,102.54,0,0,1,9.4-4.23.6.6,0,0,1,.82.26.61.61,0,0,1-.26.82l-17.17,10.88-5,2.74c-.58.26-2,1-2.37,1.13Z" transform="translate(-300.45 -345.72)"/><path class="cls-1" d="M492.47,518.44a2.18,2.18,0,0,1-.63.79,49.3,49.3,0,0,1-4.69,3.14c-2.29,1-13.59,8.57-17.76,10.83-2.75,1.49-3.72.58-2.56-1.21a.88.88,0,0,1,1.22-.26l.17.17.3-.23c4.11-2.49,14.6-11.49,16.81-12.79.39-.16,4.27-2.25,6.21-2.41,1.2-.09,1.79.16,1.9.5a1,1,0,0,1-.36,1.34A.48.48,0,0,1,492.47,518.44Z" transform="translate(-300.45 -345.72)"/><path class="cls-1" d="M470.11,534.31c.57-1.86,7.76-5.12,8.46-5.64,3.52-2.45,6.87-5,10.55-7.11a101.29,101.29,0,0,1,11.68-5.19.82.82,0,0,1,1.11.34.85.85,0,0,1-.34,1.12l-21.23,13.58c-.87.48-7.64,4.53-9.5,5.14-2.32.78-3.61.56-1.15-2A.85.85,0,0,1,470.11,534.31Z" transform="translate(-300.45 -345.72)"/><path class="cls-1" d="M469.44,544.4a11.92,11.92,0,0,0,1.19-.86c3-2.31,5.91-5.64,8.16-7.52L501,519.32a1.91,1.91,0,0,1,2,3.23L480.4,538c-2.35,1.81-5.42,5-8.52,7.24a14.73,14.73,0,0,1-4.52,2.37c-1.22.34-1.52-.35-1.51-1s1.55-2.54,2.24-3.31a.87.87,0,0,1,1.25-.09A.86.86,0,0,1,469.44,544.4Z" transform="translate(-300.45 -345.72)"/><path class="cls-1" d="M510.24,520.25,508.67,522l-8.6,7.93L471.78,553.5a.88.88,0,1,1-1.29-1.21l27.6-24.75,9.07-7.55a24,24,0,0,1,3.51-2.49c1-.48,1.77-.42,2-.2.51.53.65,1,.25,1.52a11.28,11.28,0,0,1-2.13,1.47.38.38,0,0,1-.54,0Z" transform="translate(-300.45 -345.72)"/><path class="cls-1" d="M523.81,518.31a2.18,2.18,0,0,1-.72,1.26c-1.19,1.11-3.53,2.34-4.48,3.28l-11.35,10.74L479,556.19c-1.5,1.25-4.75,5.45-7.23,7.52a4.54,4.54,0,0,1-2.94,1.41.88.88,0,0,1-.82-1,.91.91,0,0,1,1-.82l8.45-9,27.2-23.65,12.08-10.13a20,20,0,0,1,5.47-2.74,2.07,2.07,0,0,1,1.45.15.32.32,0,0,1,.16-.22.72.72,0,0,1,0,.32.64.64,0,0,1,.26.2A.29.29,0,0,1,523.81,518.31Z" transform="translate(-300.45 -345.72)"/><path class="cls-1" d="M474.6,567.84l-.25.29c-.36.38-1.48,1.6-1.77,1.43l-.1.05.09-.06h0a.41.41,0,0,0,.19-.18l-.2.17,0,0a3.31,3.31,0,0,1-.37-.61,9.8,9.8,0,0,0-1.32-.26,1.11,1.11,0,0,1,.5-.79l.28-.18.35-.34a2.23,2.23,0,0,1,1.48-1.41l9.27-8.82c7-6.34,13.81-12.86,21-19,4.8-4.11,9.78-8,14.77-11.83L530,518.15a8,8,0,0,1,2.19-1.28c1-.22,1.7-.15,1.78.6a.51.51,0,0,1-.21.69.52.52,0,0,1-.7-.2l-1.54,2.2-10.72,9-36.12,30.24Z" transform="translate(-300.45 -345.72)"/><path class="cls-1" d="M484,564.76c.85-.64,1.87-1.52,2.88-2.35l14.69-11.93c9.14-7.35,17.64-15.43,26.6-23,6-5.08,12.28-9.83,18.64-14.48a1.5,1.5,0,1,1,1.85,2.37c-9.08,7.45-17.48,15.64-26.37,23.28-6,5.13-12.22,9.91-18.55,14.6l-15.49,10.92a41.24,41.24,0,0,1-4.7,3.21c-1.51.67-3.11.27-1.15-2.83a.89.89,0,0,1,1.23-.3A.84.84,0,0,1,484,564.76Z" transform="translate(-300.45 -345.72)"/><path class="cls-1" d="M500.44,564.27a.76.76,0,0,1-.29.37c-2.19,1.56-3.29,1.22-2.06-.43a2.79,2.79,0,0,1,.5-.57l.54-.59c1.08-1.06,4.57-4.09,4.89-4.36l9.37-8.14,35.12-30a.6.6,0,0,1,.8.89l-34.59,30.72-9.51,8C504.9,560.39,501.58,563.21,500.44,564.27Z" transform="translate(-300.45 -345.72)"/><path class="cls-1" d="M510.64,563.34a8.06,8.06,0,0,0,4-2.35c3.17-2.89,6.29-7.39,8.1-9.28,8.51-8.44,17-18.52,27.15-25.89A70.56,70.56,0,0,1,564.14,518a.76.76,0,1,1,.7,1.36c-5.88,3.55-11.13,8.28-16.5,13-8,7.12-16,14.63-23.4,21.61-2,1.77-5.43,6.07-8.85,8.73-1.85,1.43-3.69,2.42-5.31,2.46a.93.93,0,1,1-.14-1.86Z" transform="translate(-300.45 -345.72)"/><path class="cls-1" d="M572.54,519.41c-.95,0-2.11.8-3.38,1.84-2.85,2.4-5.92,6.22-7.27,7.55l-23.34,21.25a82.57,82.57,0,0,0-8.06,6.74,14.67,14.67,0,0,0-3.76,5.43.91.91,0,1,1-1.74-.54,16.69,16.69,0,0,1,4.21-6.16,83.41,83.41,0,0,1,8.24-6.89l23.21-21.1c1.37-1.34,4.48-5.21,7.38-7.63,1.66-1.4,3.28-2.28,4.53-2.26a.88.88,0,0,1,.88.9A.87.87,0,0,1,572.54,519.41Z" transform="translate(-300.45 -345.72)"/><path class="cls-1" d="M584.4,517.67,575.92,526l-26.87,25.46-8.13,7-4,2.22a.69.69,0,0,1-.8.54.67.67,0,0,1-.56-.78,3.72,3.72,0,0,1,1-2.5,14.4,14.4,0,0,1,2.33-2l7.56-7.33,27.21-25.15c1.28-1,4.06-3.88,6.62-5.71a8,8,0,0,1,3.92-1.76.88.88,0,0,1,1,.81A.86.86,0,0,1,584.4,517.67Z" transform="translate(-300.45 -345.72)"/><path class="cls-1" d="M591.13,517.06a.75.75,0,0,1-.18.73c-2,2.21-6.89,7.54-7.58,8.3l-22.83,22.28-7.8,6.84L549,558.1a5.47,5.47,0,0,1-1.17,1.15c-.43.11-.77,0-.8-.89l3.73-5.14,7-7.61,23.12-22.17c.8-.67,6.35-5.32,8.68-7.15a2,2,0,0,1,2.49,0A.87.87,0,0,1,591.13,517.06Z" transform="translate(-300.45 -345.72)"/><path class="cls-1" d="M593.16,518.65a.91.91,0,0,1,.17-1c.16-.15.76-1,1.06-1.08a.94.94,0,0,1,1.06.41,1.79,1.79,0,0,1-.13,2,18.46,18.46,0,0,1-3.16,3.2l-9,9-26.67,26.68a.51.51,0,0,1-.73,0,.52.52,0,0,1,0-.74c4.78-5.88,9.48-11.8,14.63-17.37,3.42-3.7,7.1-7.14,10.66-10.7l9.65-8.52Zm1.66-.23c.07-.18.18-.33.3-.23S595.13,518.46,594.82,518.42Z" transform="translate(-300.45 -345.72)"/><path class="cls-1" d="M758.5,507.36a2.36,2.36,0,0,0-3.58-.88c-3.3,1.93-6.7,7.7-8.54,9.8-8.72,9.16-16.5,19.66-25.18,29.1a134.56,134.56,0,0,1-12,11.55,1.18,1.18,0,0,1-1.67-.09,1.21,1.21,0,0,1,.1-1.68l36.46-41c2.11-2.05,6.18-7.76,9.79-9.54,2.33-1.15,4.53-1,6.13,1.87a.89.89,0,1,1-1.52.92Z" transform="translate(-300.45 -345.72)"/><path class="cls-1" d="M741.38,507.5l-2,2.68-8.62,9.59L700.24,551a1,1,0,0,1-1.42,0,1,1,0,0,1,0-1.43c1.84-2.28,3.54-4.64,5.5-6.84,7.76-8.7,16.43-16.56,24.85-24.62l8.78-9.13,3.36-3.24a.89.89,0,1,1,.11,1.77Z" transform="translate(-300.45 -345.72)"/><path class="cls-1" d="M728.13,507.49a19.68,19.68,0,0,0-3.75,3.12c-2.75,2.85-5,6.33-7.54,9.21l-17.68,19c-3.79,3.81-7.18,8.48-11.34,12.11a32.79,32.79,0,0,1-6.07,4.12.75.75,0,0,1-1-.17.74.74,0,0,1,.18-1l15.37-17.76,18.5-18.21c2.76-2.72,5.24-6.05,8.17-8.73a21.24,21.24,0,0,1,4.29-3.17.89.89,0,0,1,.9,1.53Z" transform="translate(-300.45 -345.72)"/><path class="cls-1" d="M714.38,510.72l-7.23,7.37-23.06,23.29c-2.78,2.83-5.34,6.84-8.62,9.72a20.5,20.5,0,0,1-5,3.11.66.66,0,0,1-.76-1.07l11.44-14.48,24.48-22.31,8-7.28a.89.89,0,0,1,.69,1.65Z" transform="translate(-300.45 -345.72)"/><path class="cls-1" d="M701.87,512.69l-32.91,37a.85.85,0,0,1-1.21.07.86.86,0,0,1-.08-1.21c4.21-5.1,8.22-10.35,12.54-15.35,6.5-7.51,13.43-14.62,20.37-21.71a.88.88,0,0,1,1.25,0A.88.88,0,0,1,701.87,512.69Z" transform="translate(-300.45 -345.72)"/><path class="cls-1" d="M688.53,513a6.58,6.58,0,0,1-1.81,4.74c-2.18,2.72-6,5.25-7.64,7.1L652,555.39a.7.7,0,0,1-1,.07.69.69,0,0,1,0-1c5.19-6.3,9.84-13.05,15-19.37,3.48-4.26,7.26-8.23,11.11-12.14,1.74-1.73,5.71-4,8-6.56a4.72,4.72,0,0,0,1.59-3.27.9.9,0,0,1,.81-1A.89.89,0,0,1,688.53,513Z" transform="translate(-300.45 -345.72)"/><path class="cls-1" d="M682.4,510.1l-10.31,11.45-28.17,32.89A1.2,1.2,0,1,1,642,553c5.17-6.92,10.21-14.16,15.9-20.81a148.5,148.5,0,0,1,12.24-12.58l11.3-11a.88.88,0,1,1,.94,1.49Z" transform="translate(-300.45 -345.72)"/><path class="cls-1" d="M663.21,515.26l-.09.13c-.84,1-2.84,3.59-3.48,4.26l-7.83,8.74-23.06,26.76a.75.75,0,0,1-1,.11.74.74,0,0,1-.12-1c3.46-4.79,6.67-9.78,10.31-14.46a161.11,161.11,0,0,1,11.93-13.27l8.33-8.29c.67-.63,2.75-3.07,3.61-4,1.28-1.36,2.23,0,1.8.73A.77.77,0,0,1,663.21,515.26Z" transform="translate(-300.45 -345.72)"/><path class="cls-1" d="M656,511.82l-15.29,17.36-17.91,22.37a.82.82,0,0,1-1.29-1l17.32-23,15.73-16.74a.85.85,0,0,1,1.22-.22A.87.87,0,0,1,656,511.82Z" transform="translate(-300.45 -345.72)"/><path class="cls-1" d="M645.24,510.92l-10.63,11.81c-5.91,7-11.46,14.34-17.51,21.22-4.05,4.61-8.42,8.89-12.6,13.38a.73.73,0,0,1-1,.09.71.71,0,0,1-.09-1c3.61-5,7.05-10,10.91-14.82,5.77-7.15,12.13-13.78,18.31-20.6l11.61-11.52a.89.89,0,0,1,1,1.45Z" transform="translate(-300.45 -345.72)"/><path class="cls-1" d="M632.59,512a8.54,8.54,0,0,0-2.88,2.52c-2.25,2.71-4.45,6.53-5.83,8.21L607.43,543c-2.63,3.18-5.09,7.13-8.15,10.39a28.83,28.83,0,0,1-7.15,5.59.48.48,0,0,1-.7-.12.5.5,0,0,1,.13-.7l13.13-17.34,17.37-19.67c1.46-1.61,3.83-5.32,6.18-7.91a10.11,10.11,0,0,1,3.73-2.91.89.89,0,0,1,.62,1.66Z" transform="translate(-300.45 -345.72)"/><path class="cls-1" d="M623.49,513.75,594,549.12c-.76.88-2.86,4.41-5.28,6.94-2,2.12-4.22,3.5-5.51,3.07a.42.42,0,0,1-.34-.47.43.43,0,0,1,.47-.34c.62,0,1.19-.62,1.9-1.46,2.44-2.85,5.28-8.56,6.11-9.81,4.83-6,9.77-11.94,14.91-17.71s10.47-11.36,15.91-16.81a.88.88,0,1,1,1.28,1.22Z" transform="translate(-300.45 -345.72)"/><path class="cls-1" d="M570.69,562.06a23.72,23.72,0,0,0,2.46-4.61l6.65-8.1L601.6,524c1.89-2,5.21-6.65,8.44-9.91a13,13,0,0,1,4.84-3.47.89.89,0,0,1,.55,1.69,11.15,11.15,0,0,0-4,3.11c-3.14,3.33-6.35,8.11-8.17,10.11l-21,25.75-7,8c-.13.13-3.18,3.5-4.55,4.63a3.19,3.19,0,0,1-.72.52c-.63.25-1,0-1.12-.24a1.62,1.62,0,0,1,0-1.77c.42-.67,1.29-1.32,1.75-1.94a.41.41,0,0,1,.55-.15.41.41,0,0,1,.14.54Z" transform="translate(-300.45 -345.72)"/><path class="cls-1" d="M603.85,514c-.83.09-1.85,1-3,2.23-2.53,2.68-5.26,6.74-6.35,8l-30,36.28a1,1,0,0,1-1.46-1.33l29.77-36.47c1.16-1.25,4-5.24,6.69-7.86,1.55-1.52,3.09-2.56,4.21-2.64a.89.89,0,0,1,.95.82A.87.87,0,0,1,603.85,514Z" transform="translate(-300.45 -345.72)"/><path class="cls-1" d="M464.7,622.4c2.48-6.52-.76-28.57-.74-30.67l.29-9.34c.74-1.31,1.6-4.38,2.38-4.58,1.94-.47,1.54-2.23,2-.93.67,1.7,4.51-1.7,1,1.77a1,1,0,0,1-.32,1.33,1,1,0,0,1-1.12-.07c-.57.41-1.4.91-.76.54s.27.94.65.53c.76-.83,1.42,1,1.52-.06.06-.59,3-1.91,1.59-1.09-.72.42,1,2,1.31,2.69l.44,9c.14,2.51,2.29,21.85.74,32-1.3,8.42-6.65,11.44-10.91,10.32-2.92-.85-7.58-3.54-13-7.41-13.53-9.74-33-27.08-40.78-32.4l-63.84-42.16c-4-2.52-12.51-5.77-18.79-9.51-3.76-2.23-6.79-4.69-8.32-7.17l-17.43-72.25a3.43,3.43,0,1,1,6.38-2.52,135.19,135.19,0,0,1,4.47,14.47C317,495.6,323.29,528,325.1,530.75c1,1.56,3.15,2.9,5.58,4.29,6.43,3.64,15.08,6.77,19.18,9.24l65,41.1c7,4.6,23.17,18.36,36.34,28.15C456.68,617.63,461.52,621.07,464.7,622.4Zm-.13.31c-.57,1.28-1.41,1.83-2.6,1.28C460.55,623.34,462.81,622.76,464.57,622.71Z" transform="translate(-300.45 -345.72)"/><path class="cls-1" d="M309.7,480.79l7.48-7a1.08,1.08,0,0,1,1.33,1.7L311,482a.9.9,0,0,1-1.26,0A.88.88,0,0,1,309.7,480.79Z" transform="translate(-300.45 -345.72)"/><path class="cls-1" d="M311.3,487.72l12.19-12.19a.62.62,0,0,1,.87.11.6.6,0,0,1-.11.85L312.63,488.9a.89.89,0,0,1-1.33-1.18Z" transform="translate(-300.45 -345.72)"/><path class="cls-1" d="M311.32,492.37l13.88-14.46a1.48,1.48,0,0,1,2.09-.07,1.46,1.46,0,0,1,.08,2.08l-13.6,14.36a1.53,1.53,0,0,1-2.17.26A1.55,1.55,0,0,1,311.32,492.37Z" transform="translate(-300.45 -345.72)"/><path class="cls-1" d="M313.45,498.71a.55.55,0,0,1-.76,0c-.69-.22-.89-1-.48-1.29l.1-.07a2.11,2.11,0,0,1,.25-.42c.85-1.17,2.92-4,3.37-4.74a80.26,80.26,0,0,1,7.67-8.39c2-1.74,4.21-2.85,5.91-4.49a1.07,1.07,0,0,1,1.79,1.17,25.72,25.72,0,0,1-3.74,7.13c-2.45,3-5.9,5.26-8.36,7.66-.74.53-3.92,2.48-5.26,3.22A1.8,1.8,0,0,1,313.45,498.71Z" transform="translate(-300.45 -345.72)"/><path class="cls-1" d="M314.3,500.52c-.35-1.22,3.65-4.66,4.33-5.63,1.91-2.3,3.45-5.91,5.95-8.5a15.67,15.67,0,0,1,6.56-4.07,1.26,1.26,0,0,1,1.73.45,1.28,1.28,0,0,1-.47,1.73,27.35,27.35,0,0,0-1.84,2.87c-1.53,2.09-3.17,4.44-4.89,6.55a29.09,29.09,0,0,1-3.93,3.87c-1,.83-4.7,4-6,4.72-2.51,1.41-3.45,1.25-1.94-1.47A.93.93,0,0,1,314.3,500.52Zm1.44,1.08,0-.18-.07-.34.09-.05c.05,0,.14-.16.14,0Z" transform="translate(-300.45 -345.72)"/><path class="cls-1" d="M316.06,505.29l2.22-3.39,12.59-14.58a1.86,1.86,0,1,1,2.84,2.4l-12.46,14.8-6.12,4c-.68-.19-1-.5-1-.89s.71-1.37,1.06-1.85A.87.87,0,0,1,316.06,505.29Z" transform="translate(-300.45 -345.72)"/><path class="cls-1" d="M316.43,512.55l19.74-21.15a.61.61,0,0,1,.86,0,.58.58,0,0,1,0,.85L317.86,514a1,1,0,1,1-1.43-1.4Z" transform="translate(-300.45 -345.72)"/><path class="cls-1" d="M321.7,513.09c.89-1,1.68-1.91,1.88-2.14,2.52-2.93,4.8-6.09,7.41-9a89.61,89.61,0,0,1,8.56-8.09.4.4,0,1,1,.56.56l-14.67,18.15c-.42.43-3.36,3.39-4.69,4.44-1.68,1.33-4,1.24-1.05-2.63l.87-1.08A.86.86,0,0,1,321.7,513.09Z" transform="translate(-300.45 -345.72)"/><path class="cls-1" d="M319.68,523.88l5.56-8.55c3.83-4.71,7.46-9.59,11.72-13.91,1.85-1.86,3.91-3.4,5.86-5.17a.71.71,0,0,1,1-.07.7.7,0,0,1,.08,1c-1.45,2.2-2.74,4.45-4.39,6.52-3.79,4.7-8.34,8.75-12.38,13.25L321,525.12a.88.88,0,0,1-1.25,0A.9.9,0,0,1,319.68,523.88Z" transform="translate(-300.45 -345.72)"/><path class="cls-1" d="M322.83,528.65h0l0,0c-.6-.13-1.25-.67-.37-1.87a.89.89,0,0,1,.82-.38h0l4.54-7c3.49-4.22,6.76-8.66,10.59-12.58,2.6-2.65,5.48-4.86,8.28-7.29a.43.43,0,0,1,.6,0,.44.44,0,0,1,0,.61c-2.08,3.06-3.88,6.2-6.12,9.14-3.31,4.34-7.14,8.25-10.65,12.43l-5.84,6a3.46,3.46,0,0,1-1.47,1A1,1,0,0,1,322.83,528.65Z" transform="translate(-300.45 -345.72)"/><path class="cls-1" d="M325.4,534.48l-.14.25c-.12.17-.25.25-.37.23l-.52.5s-1.41-.51-1-1.7a20,20,0,0,1,1.49-2.48.88.88,0,0,1,1.06-.41l.77-1.09,5-7.14c2.84-3.4,5.52-7.24,8.53-10.78a83.82,83.82,0,0,1,9.91-9.86.42.42,0,0,1,.57,0,.43.43,0,0,1,0,.58L334.68,525l-6.05,6.34Z" transform="translate(-300.45 -345.72)"/><path class="cls-1" d="M327.56,535.76a64.92,64.92,0,0,1,5.44-9.7c4.95-6.88,11.36-12.66,16.58-19.28a1.54,1.54,0,1,1,2.46,1.85l-22.72,28.23a1,1,0,1,1-1.76-1.1Z" transform="translate(-300.45 -345.72)"/><path class="cls-1" d="M330.92,538.33a6.77,6.77,0,0,1,1.85-3.73c1.86-2.28,4.79-4.68,5.86-6,3.54-4.23,7-9,11.11-13.1,2.76-2.8,5.86-5,8.4-7.73a.54.54,0,0,1,.75-.16.52.52,0,0,1,.14.74,46.54,46.54,0,0,1-5.73,10.31c-3.62,4.58-8.45,8.14-12.41,12l-8.2,7.75a.89.89,0,0,1-.95.82A.87.87,0,0,1,330.92,538.33Z" transform="translate(-300.45 -345.72)"/><path class="cls-1" d="M337.22,539.43v0l5.9-7.81L362,513.27a1,1,0,0,1,1.48,1.22,144.38,144.38,0,0,1-9.25,13c-2.26,2.71-4.82,5.13-7.18,7.69l-8.19,6.29c-1.16.59-2.14.77-2.58.48a1.43,1.43,0,0,1-.49-2.2.87.87,0,0,1,1.13-.53Z" transform="translate(-300.45 -345.72)"/><path class="cls-1" d="M340.79,543.13a12.73,12.73,0,0,1,.43-1.93l6.52-7.37L367,517.58a1.68,1.68,0,0,1,2.36,2.39l-17.6,17.88-7.37,6.42c-.79.5-1.68,1.7-2.46,1.92s-1.55.53-2.16-.19-1-1.34-.4-2c.28-.27,1-.58,1.33-.84Zm-.26.45c-.06,0-.14,0-.25,0S340.26,543.49,340.53,543.58Z" transform="translate(-300.45 -345.72)"/><path class="cls-1" d="M349.48,544.44a13.12,13.12,0,0,0,1.72-1.55l6.64-8,15.91-15.32a1.65,1.65,0,0,1,2.46,2.19,66.53,66.53,0,0,1-3.83,5.59c-3.29,4.08-7.26,7.58-11,11.19L353.21,545a17.77,17.77,0,0,1-3.81,2c-1.81.48-3.56.3-1.24-2.4a.88.88,0,0,1,1.24-.22Z" transform="translate(-300.45 -345.72)"/><path class="cls-1" d="M352.89,547.51l0,0c-.34-.59,1.82-1.51,2.31-1.93l5.7-4.9c4.94-3.36,9.49-7.26,14.61-10.32,2.31-1.38,4.66-2.27,7.07-3.45a.78.78,0,1,1,1,1.23c-2.37,2.63-4.44,5.33-7,7.74-3.77,3.53-8.09,6.4-12.21,9.52l-7.4,3.79a29.63,29.63,0,0,1-3.47.43c-.69,0-1.09-.1-1.2-.25-.24-.35-.76-.81-.2-1.36A1,1,0,0,1,352.89,547.51Z" transform="translate(-300.45 -345.72)"/><path class="cls-1" d="M362,549.13c1.13-1.25,2.12-2.54,2.31-2.75,3.66-3.18,7.11-6.61,11-9.46a89.27,89.27,0,0,1,12.77-7.36A.86.86,0,0,1,389,531l-21.6,19a56.5,56.5,0,0,1-7.73,4.22c-1.85.59-4.71-.87-.38-4.32l1.31-1a.9.9,0,0,1,1.27,0Zm-3,2.47a.52.52,0,0,1-.66-.19C358.16,551.06,358.68,551.37,359,551.6Zm.92,1.07c.22.44.3.86-.2.65C359.58,553.24,359.7,553,360,552.67Z" transform="translate(-300.45 -345.72)"/><path class="cls-1" d="M363.2,554.16l.05-.08a41.88,41.88,0,0,1,4.94-4.35c4-3.22,7.69-7.33,12-10.52a43.55,43.55,0,0,1,9.72-5.28.94.94,0,0,1,.94,1.62l-19.67,17.94c-.05,0-3.38,3.13-5.77,3.87-1.87.6-3,.34-3.17-.05-.65-.64-.81-1.15-.37-1.81A15.11,15.11,0,0,1,363.2,554.16Z" transform="translate(-300.45 -345.72)"/><path class="cls-1" d="M369,556.7c.59-.6,1.54-1.87,1.8-2.18l5.6-4.43c5.1-3.6,9.51-8.15,14.74-11.57a38.76,38.76,0,0,1,4.29-2.24,1.19,1.19,0,0,1,1.66.23,1.2,1.2,0,0,1-.25,1.67l-17.76,15.6-6,3.93a24.51,24.51,0,0,1-3.36,1.33c-1.48.21-3.82-.31-1.07-2.1A.69.69,0,0,1,369,556.7Z" transform="translate(-300.45 -345.72)"/><path class="cls-1" d="M372.73,562.42c-1.44,1.37-2.16,1.31-2.21.68-.94,0-1-.7,1.37-2.3l0,0c.54-.44,2.36-2.08,2.7-2.35l6.11-5.35L399,540.94a.85.85,0,1,1,1,1.37l-16.83,14.07-7.09,4.13c-.39.22-2.6,1.55-3.16,1.85Z" transform="translate(-300.45 -345.72)"/><path class="cls-1" d="M377.75,564.2c5.5-4.44,10.69-9.35,16.36-13.66,3.81-2.89,7.88-5.37,11.92-7.88a1.09,1.09,0,1,1,1.25,1.79c-4.71,3.53-9.1,7.51-13.8,11.1s-9.74,6.81-14.69,10.08a.88.88,0,1,1-1-1.43Z" transform="translate(-300.45 -345.72)"/><path class="cls-1" d="M381.73,566.71c-.3-.27.86-1.23,1.51-2l5.2-4.32c4-2.93,7.67-6.62,11.95-9.32a50.31,50.31,0,0,1,9.52-4.33.84.84,0,0,1,1.15.32.82.82,0,0,1-.32,1.13c-3.29,2.62-6,5.83-9.23,8.61A97.85,97.85,0,0,1,391,564.12l-6,3.45c-.93.25-1.88.66-2.27.78-2.45.7-3.18.56-1.39-1.29A.72.72,0,0,1,381.73,566.71Zm1.24.45,0,.06,0,.28C383.24,566.6,383.29,567,383,567.16Z" transform="translate(-300.45 -345.72)"/><path class="cls-1" d="M387.54,569.31c-.74-1.22,4.71-4.55,5.81-5.57,3.84-3.13,7.5-6.5,11.51-9.39,2.71-2,5.6-3.55,8.41-5.32a1.1,1.1,0,1,1,1.37,1.73c-2.4,2.32-4.63,4.75-7.15,6.92-3.75,3.23-7.89,6-11.84,9-1.29.85-5.48,3.94-6.84,4.65C388,571.79,386.6,571.07,387.54,569.31Z" transform="translate(-300.45 -345.72)"/><path class="cls-1" d="M392.54,574.34c-3.05,3.57-4.13,3.55-3.56,2.1-1.55.57-1.42-.38,2.37-3.43l0,0c.15-.17.71-.74.95-1l2.32-2.06,4.09-3.38,19.09-13.69a1.31,1.31,0,1,1,1.68,2l-18.71,14.64-4.61,2.56-2.68,1.57c-.24.13-.79.54-.94.65Z" transform="translate(-300.45 -345.72)"/><path class="cls-1" d="M398.09,577.78a.85.85,0,0,1,.14,1,.88.88,0,0,1-1.17.43c-1.72-.16-1.54-1.32-.84-2.78.63-1.3,3.22-3,4.34-4.08l20.27-13.53a1.51,1.51,0,0,1,2.15.09,1.53,1.53,0,0,1-.09,2.16,53.13,53.13,0,0,1-7.26,7.11c-4,3-8.52,5.31-12.58,7.89-.88.48-4.2.59-3.65,1.85C399.78,578.73,398.75,578.29,398.09,577.78Z" transform="translate(-300.45 -345.72)"/><path class="cls-1" d="M403.63,578.38a47,47,0,0,1,4.11-3.85c2.94-2.2,5.61-4.79,8.62-6.92a53.45,53.45,0,0,1,10.13-5.52,1.6,1.6,0,0,1,1.6,2.78c-4.17,3-7.41,7-11.38,10.33A54.16,54.16,0,0,1,411,579c-.67.32-4.26,2.45-6.39,2.72a3.9,3.9,0,0,1-1.82-.09c-.64-.2-1-.39-1-1.07a3.66,3.66,0,0,1,.76-1.84A1,1,0,0,1,403.63,578.38Z" transform="translate(-300.45 -345.72)"/><path class="cls-1" d="M408.61,583.23l5-4.5,19.06-12.58a1.16,1.16,0,1,1,1.44,1.83c-2.81,2.66-5.49,5.49-8.58,7.9a74.83,74.83,0,0,1-10,6.25c-.86.34-4.95,2.3-6.7,2.56-1,.14-1.54-.1-1.74-.51a.89.89,0,0,1,1.5-.95Z" transform="translate(-300.45 -345.72)"/><path class="cls-1" d="M411.28,587.8l7.69-5.33,15.95-11.06a.89.89,0,1,1,1.05,1.43L419.91,584l-8,5.51a.89.89,0,1,1-.61-1.67Z" transform="translate(-300.45 -345.72)"/><path class="cls-1" d="M419.69,593.85v0a.86.86,0,0,1-.83.93c-1,.17-1.25-.41-1.14-1.36a5.54,5.54,0,0,1,.94-1.88l7.21-6.81L443,574.37a1.59,1.59,0,1,1,1.36,2.87l-16.13,11-7.89,4.87C420.12,593.25,419.9,593.72,419.69,593.85Z" transform="translate(-300.45 -345.72)"/><path class="cls-1" d="M424,596.65l10-7.48,13-10a1,1,0,0,1,1.25,1.51l-13.19,10-9.71,7.15a.89.89,0,0,1-1.33-1.18Z" transform="translate(-300.45 -345.72)"/><path class="cls-1" d="M428.74,598.35l11.56-9,12.61-8.74a.87.87,0,0,1,1.21.28.88.88,0,0,1-.26,1.21l-11.5,10-12.46,7.56a.89.89,0,0,1-1.25-.09A.87.87,0,0,1,428.74,598.35Z" transform="translate(-300.45 -345.72)"/><path class="cls-1" d="M433.3,600.81l13-9.53,11.28-9.18a.86.86,0,0,1,1.21.14.85.85,0,0,1-.16,1.2l-11.3,9.25-12.8,9.41a.91.91,0,0,1-1.26,0A.88.88,0,0,1,433.3,600.81Z" transform="translate(-300.45 -345.72)"/><path class="cls-1" d="M438.31,603.35l10.55-10,12.72-9.23a1.27,1.27,0,1,1,1.58,2l-12,10.42-11.53,7.9a.87.87,0,0,1-1.23.12A.89.89,0,0,1,438.31,603.35Z" transform="translate(-300.45 -345.72)"/><path class="cls-1" d="M441.84,607.08l-.13.13.12-.13h0l0,0h0l-.05,0c-.19.09-.29.18-.25.27.32.85-1.42-.44-1.33-.47a1,1,0,0,1,.42-1.11l.1,0h0c.05.08.17,0,.33-.07l-.06,0H441l-.22.09-.08-.17c.05-.1.17,0,.25,0l.1.06h.1c.36-.24.85-.76,1.09-.93l2.06-1.55,6-4.63,16.11-12.1a1,1,0,0,1,1.48.09,1.06,1.06,0,0,1-.09,1.49l-15.48,13.4-6.62,3.93-2.33,1.17C443.06,606.65,442.26,606.85,441.84,607.08Z" transform="translate(-300.45 -345.72)"/><path class="cls-1" d="M443.86,609.09l7.81-7,15.78-12.94a1.2,1.2,0,0,1,1.71,0,1.21,1.21,0,0,1,0,1.71L454,605l-8.71,5.27a.92.92,0,1,1-1.39-1.22Z" transform="translate(-300.45 -345.72)"/><path class="cls-1" d="M445.69,612.92l8.56-5.3,14.49-12.43a1.11,1.11,0,0,1,1.58,0,1.13,1.13,0,0,1,0,1.58c-1.75,1.91-3.47,3.89-5.37,5.69a59.09,59.09,0,0,1-9.43,7.15l-8.77,4.77a.89.89,0,0,1-1.06-1.44Z" transform="translate(-300.45 -345.72)"/><path class="cls-1" d="M446.77,618.31a20.26,20.26,0,0,1,4.85-5.9c2.82-2.39,6.24-4.32,8.72-6.47l9.09-8.14a1.06,1.06,0,0,1,1.38.56,1,1,0,0,1-.56,1.37l-8.19,8.18L448.3,619.23a.91.91,0,0,1-1.23.31A.92.92,0,0,1,446.77,618.31Z" transform="translate(-300.45 -345.72)"/><path class="cls-1" d="M453.18,617.22l6.73-6.12c1.49-1.28,2.85-3.37,4.53-5a12.67,12.67,0,0,1,4.43-2.8,1.66,1.66,0,1,1,1.29,3.05l-8.35,7.23-7.07,4.48a.87.87,0,0,1-1.19.36A.9.9,0,0,1,453.18,617.22Z" transform="translate(-300.45 -345.72)"/><path class="cls-1" d="M456.05,619.45l12.21-13.27a1.57,1.57,0,1,1,2.62,1.73,7.26,7.26,0,0,1-.71,2c-2.87,4.62-9,6.68-12.73,10.67a.89.89,0,1,1-1.39-1.1Z" transform="translate(-300.45 -345.72)"/><path class="cls-1" d="M459.17,621a51.26,51.26,0,0,0,6.12-5.37,25.59,25.59,0,0,0,1.94-3,2,2,0,0,1,2.83,0,2,2,0,0,1,0,2.84l-8.72,7.87a1.6,1.6,0,1,1-2.18-2.33Z" transform="translate(-300.45 -345.72)"/></svg>