<svg id="Layer_1" data-name="Layer 1" xmlns="http://www.w3.org/2000/svg" viewBox="0 0 333.86 401.62"><defs><style>.cls-1{fill:#333;}</style></defs><title>pencil</title><path class="cls-1" d="M337.48,713c-8.39-3.94-17.49-6.33-24.21-11.7-29-23.2-29.66-62.11,4-83.07,1.37-.85,3.57-1.49,3.92-2.66,3.9-13.17,14.17-21.56,22.66-31.4,6.25-7.25,10.88-15.89,17-23.26,50.44-60.61,101.84-120.46,151.11-182,12.47-15.58,26.15-25.63,44.16-32.25,15.06-5.54,29.57-12.41,41.64-23.78,4.9-4.62,11.7-7.43,18-10.35,6.43-3,10.71.15,9.77,7.21-4,29.65-7.77,59.33-12.69,88.83a39.86,39.86,0,0,1-10,19.52c-51.32,54.32-96.23,113.87-142.12,172.64-9.48,12.14-20.74,22.88-30.75,34.64-2.59,3-3.82,7.41-5.2,11.34-5.12,14.59-11.71,27.46-29.55,29.44-2.11.23-3.93,3-5.89,4.59-10,8-19.62,16.68-30.23,23.83C353.17,708.5,345.61,709.93,337.48,713ZM562.84,406.34c-10.32,9.12-21,18.12-31.09,27.64a158.89,158.89,0,0,0-16.22,17.78c-18.5,23.58-35.91,48.08-55.27,70.93-25.32,29.87-49.52,60.44-70.89,94.2l20.37,16.92L578,427.05Zm-13.46.55L526.8,383.53c-54.7,69.25-113,136.05-165.46,208.51l17.48,14.45c7.15-8.84,13.31-16.78,19.81-24.44,19.77-23.26,40.57-45.71,59.29-69.78,27.89-35.89,54.55-72.71,89.25-102.63A13.44,13.44,0,0,0,549.38,406.89ZM379.81,669.69l-52.32-47.25c-24.67,14.31-29.61,48.07-4.75,67.69,9.48,7.49,19.45,8.83,29.33,1.91C360.78,685.93,368.71,678.71,379.81,669.69Zm223.94-311c-20.25-11.83-22.71-12-42.1-3.77-4.44,1.89-9,3.41-13.36,5.51-11.63,5.66-13.53,11.5-8.48,23.37,3.34,7.82,8.7,12,17.4,11.2,4.55-.42,9.09-1,14.47-1.56.35,11.76,3.84,20.7,15.11,24.19C597.83,407.47,604.54,384.19,603.75,358.65Zm-196.7,296.8-61-58c-7.26,11.88-7,17.09,2.09,25.74,12.74,12.13,25.77,24,39,35.61C395.83,666.53,400.3,665.34,407.05,655.45Z" transform="translate(-291.73 -311.38)"/></svg>